<svg width="239" height="40" viewBox="0 0 239 40" fill="none" xmlns="http://www.w3.org/2000/svg">
<g clip-path="url(#clip0_21_225)">
<path d="M89.4744 15.6197V30.4764H84.0495V15.6197H78.5627V10.8897H94.9458V15.6197H89.4744Z" fill="white"/>
<path d="M107.624 24.5682H99.0067C99.1772 26.1965 100.123 26.9099 101.502 26.9099C102.789 26.9099 103.858 26.6308 105.3 25.8709L107.221 29.0965C105.408 30.1666 103.533 30.7714 101.239 30.7714C96.8212 30.7714 94.3878 27.6388 94.3878 23.1259C94.3878 18.0548 97.2397 15.4649 101.099 15.4649C105.129 15.4649 107.64 18.1168 107.64 23.5757C107.64 24.0099 107.64 24.3201 107.624 24.5682ZM100.96 19.2024C99.8127 19.2024 99.1772 19.9933 99.0067 21.4356H103.207C102.944 19.9468 102.448 19.2024 100.96 19.2024Z" fill="white"/>
<path d="M116.986 30.7866C112.677 30.7866 110.104 28.0416 110.104 23.0945C110.104 18.5817 112.398 15.4801 117.095 15.4801C119.869 15.4801 121.45 16.7673 122.737 18.8298L119.265 21.4662C118.567 20.179 118.087 19.5587 117.002 19.5587C115.715 19.5587 115.064 20.8459 115.064 23.1721C115.064 25.4983 115.762 26.6924 117.141 26.6924C118.087 26.6924 118.769 26.1651 119.683 24.7849L122.876 27.2817C121.171 29.794 119.59 30.7866 116.986 30.7866Z" fill="white"/>
<path d="M134.144 30.4766V22.1332C134.144 20.2257 133.509 19.7295 132.47 19.7295C131.401 19.7295 130.765 20.2257 130.765 22.0867V30.4766H125.728V12.084L130.765 10.0679V16.7674C131.695 16.0696 132.718 15.4803 134.454 15.4803C137.678 15.4803 139.213 17.6359 139.213 21.4974V30.4766H134.144Z" fill="white"/>
<path d="M151.256 30.7868C145.444 30.7868 142.328 26.4755 142.328 20.691C142.328 14.3947 146.017 10.5952 151.271 10.5952C156.076 10.5952 157.983 12.6733 159.331 16.3643L154.418 18.2717C153.72 16.4573 153.054 15.3097 151.256 15.3097C148.993 15.3097 148.017 17.5739 148.017 20.6755C148.017 23.6686 148.962 26.0413 151.318 26.0413C153.023 26.0413 153.751 25.1108 154.805 23.2654L159.393 25.7001C158.091 28.29 155.906 30.7868 151.256 30.7868Z" fill="white"/>
<path d="M171.777 21.3269C171.142 20.6291 170.413 20.1018 169.437 20.1018C168.213 20.1018 167.453 20.6911 167.453 22.4745V30.4767H162.416V15.7906H167.453V16.8606C168.321 16.0232 169.298 15.4959 170.584 15.4959C171.653 15.4959 172.366 15.744 172.955 16.1162L171.777 21.3269Z" fill="white"/>
<path d="M183.743 30.4766V29.4996C182.844 30.1975 181.79 30.7868 180.085 30.7868C176.861 30.7868 175.327 28.6312 175.327 24.7697V15.7905H180.395V24.1338C180.395 26.0413 181.031 26.5376 182.069 26.5376C183.108 26.5376 183.743 26.0413 183.743 24.1803V15.7905H188.812V30.4766H183.743Z" fill="white"/>
<path d="M200.855 30.4764V22.1331C200.855 20.2256 200.219 19.7293 199.181 19.7293C198.111 19.7293 197.476 20.2256 197.476 22.0865V30.4764H192.438V15.7902H197.476V16.7673C198.406 16.0694 199.429 15.4801 201.165 15.4801C204.389 15.4801 205.923 17.6357 205.923 21.4972V30.4764H200.855Z" fill="white"/>
<path d="M215.734 30.7866C211.426 30.7866 208.853 28.0416 208.853 23.0945C208.853 18.5817 211.147 15.4801 215.843 15.4801C218.617 15.4801 220.198 16.7673 221.485 18.8298L218.013 21.4662C217.315 20.179 216.835 19.5587 215.75 19.5587C214.463 19.5587 213.812 20.8459 213.812 23.1721C213.812 25.4983 214.51 26.6924 215.889 26.6924C216.835 26.6924 217.517 26.1651 218.431 24.7849L221.624 27.2817C219.919 29.794 218.338 30.7866 215.734 30.7866Z" fill="white"/>
<path d="M232.892 30.4766V22.1332C232.892 20.2257 232.257 19.7295 231.219 19.7295C230.149 19.7295 229.514 20.2257 229.514 22.0867V30.4766H224.476V12.084L229.514 10.0679V16.7674C230.444 16.0696 231.467 15.4803 233.202 15.4803C236.426 15.4803 237.961 17.6359 237.961 21.4974V30.4766H232.892Z" fill="white"/>
<path d="M0.0415039 2.5V13.6968H11.2322V36.075H22.4075V13.6968H33.5982V2.5H0.0415039Z" fill="white"/>
<path d="M44.7734 24.8783V13.6969L33.5982 13.6968L33.5982 36.0751H67.1394V24.8783H44.7734Z" fill="white"/>
<path d="M67.1394 2.5H44.7734L44.7734 13.6969L67.1394 13.6968V2.5Z" fill="white"/>
</g>
<defs>
<clipPath id="clip0_21_225">
<rect width="238.333" height="40" fill="white" transform="translate(0.0415039)"/>
</clipPath>
</defs>
</svg>
